<svg xmlns="http://www.w3.org/2000/svg">
    <symbol
        id="external"
        viewBox="0 0 24 24" fill="none"
        stroke="currentColor" stroke-width="2" stroke-linecap="round" stroke-linejoin="round"
        class="lucide lucide-square-arrow-out-up-right-icon lucide-square-arrow-out-up-right">
        <path
            d="M21 13v6a2 2 0 0 1-2 2H5a2 2 0 0 1-2-2V5a2 2 0 0 1 2-2h6" />
        <path d="m21 3-9 9" />
        <path
            d="M15 3h6v6" />
    </symbol>
    <symbol id="github" xmlns="http://www.w3.org/2000/svg" shape-rendering="geometricPrecision"
        text-rendering="geometricPrecision" image-rendering="optimizeQuality" fill-rule="evenodd"
        clip-rule="evenodd" viewBox="0 0 512 499.368">
        <path fill="#fff" fill-rule="nonzero"
            d="M256.003 0C114.555 0 0 114.555 0 256.003c0 113.286 73.28 208.961 175.038 242.865 12.796 2.247 17.586-5.433 17.586-12.153 0-6.077-.309-26.225-.309-47.686-64.313 11.844-80.941-15.674-86.058-30.055-2.896-7.37-15.359-30.1-26.269-36.177-8.948-4.808-21.752-16.652-.31-16.961 20.168-.309 34.574 18.564 39.382 26.244 23.038 38.732 59.839 27.828 74.555 21.101 2.227-16.627 8.947-27.828 16.318-34.239-56.968-6.386-116.467-28.471-116.467-126.399 0-27.827 9.907-50.866 26.225-68.787-2.562-6.41-11.51-32.655 2.562-67.853 0 0 21.436-6.72 70.409 26.244 20.483-5.767 42.227-8.638 63.998-8.638 21.751 0 43.52 2.896 63.997 8.638 48.973-33.279 70.39-26.244 70.39-26.244 14.09 35.192 5.117 61.443 2.562 67.853 16.318 17.921 26.244 40.625 26.244 68.787 0 98.237-59.84 119.988-116.801 126.399 9.282 8.014 17.277 23.373 17.277 47.371 0 34.238-.309 61.751-.309 70.389 0 6.721 4.808 14.735 17.586 12.179C438.739 464.964 512 368.955 512 256.003 512 114.555 397.445 0 256.003 0z" />
    </symbol>
    <symbol id="reddit" data-name="reddit" xmlns="http://www.w3.org/2000/svg"
        viewBox="0 0 256 256"
        xmlns:xlink="http://www.w3.org/1999/xlink">
        <path fill="#ff4500" class="cls-2"
            d="m128,0h0C57.31,0,0,57.31,0,128h0c0,35.35,14.33,67.35,37.49,90.51l-24.38,24.38c-4.84,4.84-1.41,13.11,5.43,13.11h109.46s0,0,0,0c70.69,0,128-57.31,128-128h0C256,57.31,198.69,0,128,0Z">
        </path>
        <path fill="#fff" class="cls-1"
            d="m154.04,60.36c2.22,9.41,10.67,16.42,20.76,16.42,11.78,0,21.33-9.55,21.33-21.33s-9.55-21.33-21.33-21.33c-10.3,0-18.89,7.3-20.89,17.01-17.25,1.85-30.72,16.48-30.72,34.21,0,.04,0,.07,0,.11-18.76.79-35.89,6.13-49.49,14.56-5.05-3.91-11.39-6.24-18.27-6.24-16.51,0-29.89,13.38-29.89,29.89,0,11.98,7.04,22.3,17.21,27.07.99,34.7,38.8,62.61,85.31,62.61s84.37-27.94,85.31-62.67c10.09-4.8,17.07-15.09,17.07-27,0-16.51-13.38-29.89-29.89-29.89-6.85,0-13.16,2.31-18.2,6.19-13.72-8.49-31.04-13.83-49.99-14.54,0-.03,0-.05,0-.08,0-12.7,9.44-23.24,21.68-24.97Zm-81.54,82.27c.5-10.84,7.7-19.16,16.07-19.16s14.77,8.79,14.27,19.63c-.5,10.84-6.75,14.78-15.13,14.78s-15.71-4.41-15.21-15.25Zm95.06-19.16c8.38,0,15.58,8.32,16.07,19.16.5,10.84-6.84,15.25-15.21,15.25s-14.63-3.93-15.13-14.78c-.5-10.84,5.89-19.63,14.27-19.63Zm-9.96,44.24c1.57.16,2.57,1.79,1.96,3.25-5.15,12.31-17.31,20.96-31.5,20.96s-26.34-8.65-31.5-20.96c-.61-1.46.39-3.09,1.96-3.25,9.2-.93,19.15-1.44,29.54-1.44s20.33.51,29.54,1.44Z">
        </path>
    </symbol>
    <symbol id="discord2" xmlns="http://www.w3.org/2000/svg" shape-rendering="geometricPrecision"
        text-rendering="geometricPrecision" image-rendering="optimizeQuality" fill-rule="evenodd"
        clip-rule="evenodd" viewBox="0 0 512 512">
        <path fill="#5865F2"
            d="M256 0c141.385 0 256 114.615 256 256S397.385 512 256 512 0 397.385 0 256 114.615 0 256 0z" />
        <g data-name="图层 2">
            <g data-name="Discord Logos">
                <path fill="#fff" fill-rule="nonzero"
                    d="M360.932 160.621a250.49 250.49 0 00-62.384-19.182 174.005 174.005 0 00-7.966 16.243 232.677 232.677 0 00-34.618-2.602c-11.569 0-23.196.879-34.623 2.58-2.334-5.509-5.044-10.972-7.986-16.223a252.55 252.55 0 00-62.397 19.222c-39.483 58.408-50.183 115.357-44.833 171.497a251.546 251.546 0 0076.502 38.398c6.169-8.328 11.695-17.193 16.386-26.418a161.718 161.718 0 01-25.813-12.318c2.165-1.569 4.281-3.186 6.325-4.756 23.912 11.23 50.039 17.088 76.473 17.088 26.436 0 52.563-5.858 76.475-17.09 2.069 1.689 4.186 3.306 6.325 4.756a162.642 162.642 0 01-25.859 12.352 183.919 183.919 0 0016.386 26.396 250.495 250.495 0 0076.553-38.391l-.006.006c6.278-65.103-10.724-121.529-44.94-171.558zM205.779 297.63c-14.908 0-27.226-13.53-27.226-30.174 0-16.645 11.889-30.294 27.179-30.294 15.289 0 27.511 13.649 27.249 30.294-.261 16.644-12.007 30.174-27.202 30.174zm100.439 0c-14.933 0-27.202-13.53-27.202-30.174 0-16.645 11.889-30.294 27.202-30.294 15.313 0 27.44 13.649 27.178 30.294-.261 16.644-11.984 30.174-27.178 30.174z"
                    data-name="Discord Logo - Large - White" />
            </g>
        </g>
    </symbol>
    <symbol id="discord" viewBox="0 0 71 55" fill="none"
        xmlns="http://www.w3.org/2000/svg"
        xmlns:xlink="http://www.w3.org/1999/xlink">
        <g clip-path="url(#clip0)">
            <path
                d="M60.1045 4.8978C55.5792 2.8214 50.7265 1.2916 45.6527 0.41542C45.5603 0.39851 45.468 0.440769 45.4204 0.525289C44.7963 1.6353 44.105 3.0834 43.6209 4.2216C38.1637 3.4046 32.7345 3.4046 27.3892 4.2216C26.905 3.0581 26.1886 1.6353 25.5617 0.525289C25.5141 0.443589 25.4218 0.40133 25.3294 0.41542C20.2584 1.2888 15.4057 2.8186 10.8776 4.8978C10.8384 4.9147 10.8048 4.9429 10.7825 4.9795C1.57795 18.7309 -0.943561 32.1443 0.293408 45.3914C0.299005 45.4562 0.335386 45.5182 0.385761 45.5576C6.45866 50.0174 12.3413 52.7249 18.1147 54.5195C18.2071 54.5477 18.305 54.5139 18.3638 54.4378C19.7295 52.5728 20.9469 50.6063 21.9907 48.5383C22.0523 48.4172 21.9935 48.2735 21.8676 48.2256C19.9366 47.4931 18.0979 46.6 16.3292 45.5858C16.1893 45.5041 16.1781 45.304 16.3068 45.2082C16.679 44.9293 17.0513 44.6391 17.4067 44.3461C17.471 44.2926 17.5606 44.2813 17.6362 44.3151C29.2558 49.6202 41.8354 49.6202 53.3179 44.3151C53.3935 44.2785 53.4831 44.2898 53.5502 44.3433C53.9057 44.6363 54.2779 44.9293 54.6529 45.2082C54.7816 45.304 54.7732 45.5041 54.6333 45.5858C52.8646 46.6197 51.0259 47.4931 49.0921 48.2228C48.9662 48.2707 48.9102 48.4172 48.9718 48.5383C50.038 50.6034 51.2554 52.5699 52.5959 54.435C52.6519 54.5139 52.7526 54.5477 52.845 54.5195C58.6464 52.7249 64.529 50.0174 70.6019 45.5576C70.6551 45.5182 70.6887 45.459 70.6943 45.3942C72.1747 30.0791 68.2147 16.7757 60.1968 4.9823C60.1772 4.9429 60.1437 4.9147 60.1045 4.8978ZM23.7259 37.3253C20.2276 37.3253 17.3451 34.1136 17.3451 30.1693C17.3451 26.225 20.1717 23.0133 23.7259 23.0133C27.308 23.0133 30.1626 26.2532 30.1066 30.1693C30.1066 34.1136 27.28 37.3253 23.7259 37.3253ZM47.3178 37.3253C43.8196 37.3253 40.9371 34.1136 40.9371 30.1693C40.9371 26.225 43.7636 23.0133 47.3178 23.0133C50.9 23.0133 53.7545 26.2532 53.6986 30.1693C53.6986 34.1136 50.9 37.3253 47.3178 37.3253Z"
                fill="#ffffff">
            </path>
        </g>
        <defs>
            <clipPath id="clip0">
                <rect width="71" height="55" fill="white">
                </rect>
            </clipPath>
        </defs>
    </symbol>
    <symbol id="info" xmlns="http://www.w3.org/2000/svg"
        viewBox="0 0 64 64">
        <path
            d="M 32 10 C 19.85 10 10 19.85 10 32 C 10 44.15 19.85 54 32 54 C 44.15 54 54 44.15 54 32 C 54 19.85 44.15 10 32 10 z M 32 14 C 41.941 14 50 22.059 50 32 C 50 41.941 41.941 50 32 50 C 22.059 50 14 41.941 14 32 C 14 22.059 22.059 14 32 14 z M 32 21 C 30.343 21 29 22.343 29 24 C 29 25.657 30.343 27 32 27 C 33.657 27 35 25.657 35 24 C 35 22.343 33.657 21 32 21 z M 32 30 C 30.895 30 30 30.896 30 32 L 30 42 C 30 43.104 30.895 44 32 44 C 33.105 44 34 43.104 34 42 L 34 32 C 34 30.896 33.105 30 32 30 z"></path>
    </symbol>
</svg>